# xmcd
#
# Track frame offsets: 
#        150
#        13613
#        32041
#        47732
#        64941
#        84600
#        105451
#        118643
#        135189
#        150822
#        168104
#        185079
#        207790
#
# Disc length: 3051 seconds
#
# Revision: 0
# Processed by: cddbd v1.5.2PL0 Copyright (c) Steve Scherf et al.
# Submitted via: ExactAudioCopy v0.95b4
#
DISCID=9b0be90d
DTITLE=Katie Melua - The house
DYEAR=2010
DGENRE=Blues
TTITLE0=01 - I'd Love to Kill You
TTITLE1=02 - The Flood
TTITLE2=03 - A Happy Place
TTITLE3=04 - A Moment of Madness
TTITLE4=05 - Red Balloons
TTITLE5=06 - Tiny Aliens
TTITLE6=07 - No Fear of Heights
TTITLE7=08 - The One I Love is Gone
TTITLE8=09 - Plague of Love
TTITLE9=10 - God on the Drums, Devil on the Bass
TTITLE10=11 - Twisted
TTITLE11=12 - The House
TTITLE12=13 - The Flood (Michael Woods Remix)
EXTD=
EXTT0=
EXTT1=
EXTT2=
EXTT3=
EXTT4=
EXTT5=
EXTT6=
EXTT7=
EXTT8=
EXTT9=
EXTT10=
EXTT11=
EXTT12=
PLAYORDER=
